<svg version="1.1" id="Layer_1" xmlns="http://www.w3.org/2000/svg" xmlns:xlink="http://www.w3.org/1999/xlink" x="0px" y="0px"
	 width="100%" viewBox="0 0 1024 560" enable-background="new 0 0 1024 560" xml:space="preserve">
<path fill="#000000" opacity="1.000000" stroke="none" 
	d="
M417.000122,112.600235 
	C440.826508,112.501411 464.154083,112.241547 487.478516,112.411331 
	C493.754456,112.457016 497.862518,117.582260 504.145233,120.962921 
	C498.206726,124.689949 493.405548,127.864960 488.434875,130.747803 
	C486.271240,132.002640 483.931732,130.309891 481.605865,130.315536 
	C447.277283,130.399048 412.948273,130.410187 378.619781,130.306686 
	C374.779449,130.295120 373.236298,131.515945 373.316772,135.475937 
	C373.503021,144.637421 373.485626,153.807938 373.298920,162.969666 
	C373.225891,166.552887 374.300171,168.068008 378.091827,168.049316 
	C400.254974,167.939911 422.419037,167.969116 444.582581,168.030151 
	C449.151062,168.042725 452.291443,165.133789 455.754700,162.951431 
	C480.703430,147.230087 505.626251,131.467178 530.485291,115.604584 
	C533.866150,113.447281 537.271118,112.543953 541.268982,112.548897 
	C582.762695,112.600288 624.256775,112.559410 665.750244,112.406792 
	C669.371155,112.393478 670.330994,113.745071 670.325439,117.086708 
	C670.254700,159.247574 670.212830,201.408737 670.341309,243.569290 
	C670.356018,248.389297 667.918701,248.996353 664.105042,248.988266 
	C641.608154,248.940567 619.111084,248.990005 596.614075,248.991180 
	C583.667786,248.991852 585.416565,248.596970 585.407776,260.411102 
	C585.359802,324.901337 585.389771,389.391663 585.381287,453.881958 
	C585.380371,461.055176 585.346008,461.102325 578.145630,461.100586 
	C534.651611,461.089996 491.157623,461.062439 447.663635,461.023590 
	C440.686798,461.017334 440.666779,460.977844 440.664978,454.127350 
	C440.659271,432.630188 440.725464,411.132751 440.617584,389.636139 
	C440.600433,386.225800 441.517029,383.627808 443.985291,381.217010 
	C462.580811,363.054688 481.124725,344.838928 499.571838,326.526062 
	C502.182007,323.934845 504.186615,323.739990 507.295105,325.751282 
	C515.795410,331.251221 524.527405,336.393127 534.007019,342.190125 
	C534.007019,321.792511 534.007019,302.234955 534.007019,281.690857 
	C515.757935,290.868073 498.302551,299.646118 480.414856,308.641602 
	C484.632935,312.807281 489.999207,314.083313 492.499939,316.985626 
	C475.674408,334.671051 459.034760,352.161102 442.350647,369.697937 
	C439.909607,367.488617 440.706390,365.361542 440.703827,363.509979 
	C440.653961,327.514862 440.676239,291.519592 440.669128,255.524368 
	C440.667816,248.978638 440.621124,248.942947 433.903046,248.939819 
	C410.239502,248.928787 386.575989,248.937912 362.912445,248.926361 
	C355.870728,248.922928 355.708435,248.760254 355.707306,241.584488 
	C355.700958,200.923218 355.703705,160.261932 355.709167,119.600662 
	C355.710114,112.628220 355.723022,112.618790 362.508850,112.615143 
	C380.505920,112.605484 398.503021,112.604774 417.000122,112.600235 
M531.234985,211.802643 
	C523.361206,214.159500 521.334473,219.527710 522.018250,227.368683 
	C522.739258,235.636383 522.203186,244.015366 522.173035,252.345596 
	C522.166504,254.148346 522.619629,256.400146 520.876953,257.453705 
	C515.841187,260.498352 510.708435,263.436157 505.046539,265.205566 
	C503.489594,262.830414 503.891327,260.793457 503.889557,258.847565 
	C503.878143,246.352081 503.831177,233.855850 503.962006,221.361588 
	C503.995239,218.186783 503.084869,216.128647 500.109772,214.592819 
	C488.122253,208.404617 476.265015,201.964493 464.309296,195.713821 
	C462.649628,194.846146 461.026550,193.319290 458.640503,194.195526 
	C458.537384,194.996918 458.343628,195.805603 458.342529,196.614563 
	C458.321625,211.775772 458.372894,226.937302 458.274902,242.097916 
	C458.257416,244.803009 459.305115,246.343323 461.627533,247.596512 
	C472.180420,253.290894 482.672302,259.099030 493.156860,264.918915 
	C494.943329,265.910583 497.182098,266.497375 498.094238,269.388824 
	C493.707703,271.638214 489.322968,273.604736 485.239014,276.069611 
	C481.940704,278.060333 479.284485,277.705872 476.025665,275.878448 
	C470.458282,272.756470 465.116211,269.084198 458.812073,266.854950 
	C458.812073,277.908051 458.812073,288.387085 458.812073,299.556763 
	C490.010223,283.965881 520.529724,268.714142 551.845642,253.064377 
	C551.845642,294.209320 551.845642,333.711182 551.845642,373.278168 
	C548.991150,373.428680 547.461853,371.669891 545.686829,370.578461 
	C533.768250,363.249756 521.793579,356.002960 510.070831,348.370575 
	C506.291901,345.910156 504.075439,346.658295 501.147583,349.587646 
	C487.958771,362.783295 474.597137,375.807037 461.220398,388.813141 
	C459.142303,390.833679 458.262878,393.013885 458.284454,395.884735 
	C458.369598,407.213257 458.283752,418.543060 458.325592,429.872101 
	C458.330139,431.100250 457.746552,432.531921 459.322479,433.858002 
	C472.963715,423.002136 486.559052,412.049347 500.337646,401.332153 
	C503.040070,399.230194 503.988098,396.987762 503.950012,393.723175 
	C503.829559,383.395111 503.900024,373.064362 503.964203,362.735046 
	C503.975098,360.983673 503.414368,359.039246 505.511810,357.099701 
	C510.819672,359.706024 515.895203,363.059601 520.836853,366.608795 
	C522.338501,367.687256 522.142944,369.581879 522.150696,371.244110 
	C522.177979,377.075226 522.347290,382.912994 522.126343,388.735443 
	C521.979126,392.615082 523.373718,394.053528 527.303772,393.993591 
	C538.796936,393.818268 550.297913,393.772797 561.788757,394.013641 
	C566.284424,394.107910 567.804871,392.767700 567.794189,388.073151 
	C567.650818,324.929352 567.706360,261.785126 567.665405,198.641022 
	C567.664307,196.944412 568.408569,194.925583 566.033447,193.325333 
	C554.769287,199.296494 543.321899,205.364822 531.234985,211.802643 
M552.768799,151.691132 
	C560.216736,156.436111 567.692017,161.138992 575.095703,165.952026 
	C577.277954,167.370651 579.519348,168.056061 582.127014,168.050705 
	C603.959473,168.005814 625.792480,167.956360 647.624207,168.093582 
	C651.662720,168.118958 652.793335,166.509171 652.710815,162.732254 
	C652.521423,154.070007 652.368469,145.388504 652.750732,136.739136 
	C652.976746,131.625595 651.253967,130.223221 646.225586,130.254166 
	C612.894592,130.459229 579.560974,130.485352 546.230225,130.266602 
	C539.797546,130.224396 535.420837,133.390442 530.326904,137.215759 
	C537.937073,142.129669 545.045227,146.719406 552.768799,151.691132 
M373.355377,217.477951 
	C373.353271,220.143173 373.527161,222.822983 373.307404,225.470139 
	C372.986237,229.338837 374.465240,230.774277 378.424347,230.745819 
	C397.579407,230.608124 416.736328,230.640045 435.891876,230.742401 
	C439.299133,230.760605 440.701813,229.556427 440.670990,226.098282 
	C440.567139,214.438995 440.568024,202.777679 440.669373,191.118362 
	C440.698364,187.780701 439.559692,186.287415 436.043488,186.303009 
	C416.721222,186.388794 397.398102,186.385757 378.075928,186.287109 
	C374.627655,186.269501 373.319000,187.586060 373.363403,190.999084 
	C373.473938,199.492722 373.374603,207.989090 373.355377,217.477951 
M585.533447,228.717697 
	C586.246948,230.756454 587.990601,230.701080 589.662964,230.702209 
	C609.145569,230.715393 628.628479,230.664871 648.110596,230.763916 
	C651.618530,230.781754 652.754578,229.375504 652.712036,225.992371 
	C652.567261,214.504272 652.544128,203.012817 652.654358,191.524368 
	C652.689697,187.843002 651.712463,186.182205 647.580627,186.226105 
	C628.599609,186.427872 609.614502,186.427597 590.632935,186.262222 
	C586.346802,186.224869 585.220642,187.911072 585.285156,191.887573 
	C585.479614,203.873672 585.386780,215.864410 585.533447,228.717697 
M553.973145,173.416122 
	C541.902771,165.724060 529.758423,158.144318 517.808533,150.269470 
	C514.354004,147.992950 511.687592,148.089813 508.299072,150.317001 
	C496.339966,158.177429 484.203827,165.768082 472.175934,173.524811 
	C470.726227,174.459717 468.806458,175.023926 468.192871,177.378693 
	C481.537811,184.522903 494.931580,191.543243 508.155670,198.869797 
	C511.828125,200.904449 514.768799,200.709991 518.341492,198.739304 
	C529.268799,192.711777 540.367493,186.995316 551.381897,181.124878 
	C553.680908,179.899582 556.138916,178.872009 557.941833,177.009018 
	C557.244385,175.140533 555.686096,174.701553 553.973145,173.416122 
M567.653870,439.939606 
	C567.675598,432.613586 567.487183,425.278564 567.798950,417.964935 
	C567.982117,413.669250 566.697144,412.053192 562.203735,412.160736 
	C550.887695,412.431519 539.527405,412.794495 528.249023,412.091125 
	C519.022766,411.515717 511.690186,413.898376 504.819550,420.168396 
	C496.418793,427.834869 487.196899,434.601593 477.932922,442.077911 
	C479.104431,442.443146 479.547729,442.702087 479.991211,442.702423 
	C507.797516,442.722412 535.603821,442.725433 563.410156,442.711609 
	C565.047607,442.710815 566.851807,442.916229 567.653870,439.939606 
M463.001862,318.472534 
	C461.733765,317.823181 460.636566,316.624268 458.728973,317.254272 
	C458.079651,320.679443 458.206390,324.125580 458.651581,327.855865 
	C461.285553,326.650787 462.636932,324.743713 464.277069,323.177704 
	C466.162964,321.377045 465.373840,320.029999 463.001862,318.472534 
z"/>
</svg>